<?xml version="1.0" encoding="UTF-8" standalone="no"?><svg xmlns="http://www.w3.org/2000/svg" xmlns:xlink="http://www.w3.org/1999/xlink" contentStyleType="text/css" height="117px" preserveAspectRatio="none" style="width:274px;height:117px;background:#FFFFFF;" version="1.1" viewBox="0 0 274 117" width="274px" zoomAndPan="magnify"><defs/><g><!--class sesion05.JsonReaderTest--><a href="JsonReaderTest.html" target="_top" title="JsonReaderTest.html" xlink:actuate="onRequest" xlink:href="JsonReaderTest.html" xlink:show="new" xlink:title="JsonReaderTest.html" xlink:type="simple"><g id="elem_sesion05.JsonReaderTest"><rect codeLine="5" fill="#F1F1F1" height="83.4063" id="sesion05.JsonReaderTest" rx="2.5" ry="2.5" style="stroke:#181818;stroke-width:0.5;" width="253" x="7" y="7"/><ellipse cx="77.25" cy="27.0938" fill="#ADD1B2" rx="11" ry="11" style="stroke:#181818;stroke-width:1.0;"/><path d="M80.0156,22.9688 Q80.1719,22.75 80.3594,22.6406 Q80.5469,22.5313 80.7656,22.5313 Q81.1406,22.5313 81.375,22.7969 Q81.6094,23.0469 81.6094,23.6563 L81.6094,25.1094 Q81.6094,25.7188 81.375,25.9844 Q81.1406,26.25 80.7656,26.25 Q80.4219,26.25 80.2188,26.0469 Q80.0156,25.8594 79.9063,25.3438 Q79.8594,24.9844 79.6719,24.7969 Q79.3438,24.4219 78.7344,24.2031 Q78.125,23.9844 77.5,23.9844 Q76.7344,23.9844 76.0938,24.3125 Q75.4688,24.6406 74.9688,25.3906 Q74.4844,26.1406 74.4844,27.1719 L74.4844,28.2656 Q74.4844,29.5 75.375,30.3281 Q76.2656,31.1406 77.8594,31.1406 Q78.7969,31.1406 79.4531,30.8906 Q79.8438,30.7344 80.2656,30.2969 Q80.5313,30.0313 80.6719,29.9531 Q80.8281,29.875 81.0313,29.875 Q81.3594,29.875 81.6094,30.1406 Q81.875,30.3906 81.875,30.7344 Q81.875,31.0781 81.5313,31.4844 Q81.0313,32.0625 80.2344,32.3906 Q79.1563,32.8438 77.8594,32.8438 Q76.3438,32.8438 75.1406,32.2188 Q74.1563,31.7188 73.4688,30.6563 Q72.7813,29.5781 72.7813,28.2969 L72.7813,27.1406 Q72.7813,25.8125 73.3906,24.6719 Q74.0156,23.5156 75.1094,22.9063 Q76.2031,22.2813 77.4375,22.2813 Q78.1719,22.2813 78.8125,22.4531 Q79.4688,22.6094 80.0156,22.9688 Z " fill="#000000"/><text fill="#000000" font-family="sans-serif" font-size="14" lengthAdjust="spacing" textLength="104" x="97.75" y="26.5332">JsonReaderTest</text><text fill="#000000" font-family="sans-serif" font-size="10" lengthAdjust="spacing" textLength="41" x="129.25" y="39.9902">sesion05</text><line style="stroke:#181818;stroke-width:0.5;" x1="8" x2="259" y1="47.1875" y2="47.1875"/><polygon fill="#4177AF" points="18,57.4922,14,63.4922,22,63.4922" style="stroke:#1963A0;stroke-width:1.0;"/><text fill="#000000" font-family="sans-serif" font-size="14" lengthAdjust="spacing" textLength="179" x="27" y="65.7207">testLeerCochesJSON(): void</text><polygon fill="#4177AF" points="18,75.1016,14,81.1016,22,81.1016" style="stroke:#1963A0;stroke-width:1.0;"/><text fill="#000000" font-family="sans-serif" font-size="14" lengthAdjust="spacing" textLength="227" x="27" y="83.3301">testLeerCochesJSONprimero(): void</text></g></a><text fill="#888888" font-family="sans-serif" font-size="10" lengthAdjust="spacing" textLength="184" x="41" y="107.7871">UMLDoclet 2.1.0, PlantUML 1.2022.14</text><!--SRC=[VP3DIWD148JlFaKH41AGPIDw2PABdaBymUWfvZ3iLjY1cUbbkWcewBCx6-9XFTYNfhygwEe60AKXkKZjNSCDUvUTIKQInBCYe_CjmTZRE_QUeTM_DD8wAVZ8c-1KCRbH_y75_6gvKadFT2tp2zNUqacebqhrakhh2PpYTwZ6TcotOr1r5iDkXy_Zhg6-hU0rcM-bwQYhpUF3TBR0GNpxdwVFFZBBoFfrke39cB4N6Thh_VfEcb1-T5dDg_e2Jy4bAnJd1-OXzNJs0m00]--></g></svg>