<?xml version="1.0" encoding="UTF-8" standalone="no"?><svg xmlns="http://www.w3.org/2000/svg" xmlns:xlink="http://www.w3.org/1999/xlink" contentStyleType="text/css" height="337px" preserveAspectRatio="none" style="width:226px;height:337px;background:#FFFFFF;" version="1.1" viewBox="0 0 226 337" width="226px" zoomAndPan="magnify"><defs/><g><!--class sesion05.Coche--><a href="Coche.html" target="_top" title="Coche.html" xlink:actuate="onRequest" xlink:href="Coche.html" xlink:show="new" xlink:title="Coche.html" xlink:type="simple"><g id="elem_sesion05.Coche"><rect codeLine="5" fill="#F1F1F1" height="302.7188" id="sesion05.Coche" rx="2.5" ry="2.5" style="stroke:#181818;stroke-width:0.5;" width="205" x="7" y="7"/><ellipse cx="84.75" cy="27.0938" fill="#ADD1B2" rx="11" ry="11" style="stroke:#181818;stroke-width:1.0;"/><path d="M87.5156,22.9688 Q87.6719,22.75 87.8594,22.6406 Q88.0469,22.5313 88.2656,22.5313 Q88.6406,22.5313 88.875,22.7969 Q89.1094,23.0469 89.1094,23.6563 L89.1094,25.1094 Q89.1094,25.7188 88.875,25.9844 Q88.6406,26.25 88.2656,26.25 Q87.9219,26.25 87.7188,26.0469 Q87.5156,25.8594 87.4063,25.3438 Q87.3594,24.9844 87.1719,24.7969 Q86.8438,24.4219 86.2344,24.2031 Q85.625,23.9844 85,23.9844 Q84.2344,23.9844 83.5938,24.3125 Q82.9688,24.6406 82.4688,25.3906 Q81.9844,26.1406 81.9844,27.1719 L81.9844,28.2656 Q81.9844,29.5 82.875,30.3281 Q83.7656,31.1406 85.3594,31.1406 Q86.2969,31.1406 86.9531,30.8906 Q87.3438,30.7344 87.7656,30.2969 Q88.0313,30.0313 88.1719,29.9531 Q88.3281,29.875 88.5313,29.875 Q88.8594,29.875 89.1094,30.1406 Q89.375,30.3906 89.375,30.7344 Q89.375,31.0781 89.0313,31.4844 Q88.5313,32.0625 87.7344,32.3906 Q86.6563,32.8438 85.3594,32.8438 Q83.8438,32.8438 82.6406,32.2188 Q81.6563,31.7188 80.9688,30.6563 Q80.2813,29.5781 80.2813,28.2969 L80.2813,27.1406 Q80.2813,25.8125 80.8906,24.6719 Q81.5156,23.5156 82.6094,22.9063 Q83.7031,22.2813 84.9375,22.2813 Q85.6719,22.2813 86.3125,22.4531 Q86.9688,22.6094 87.5156,22.9688 Z " fill="#000000"/><text fill="#000000" font-family="sans-serif" font-size="14" lengthAdjust="spacing" textLength="41" x="105.25" y="26.5332">Coche</text><text fill="#000000" font-family="sans-serif" font-size="10" lengthAdjust="spacing" textLength="41" x="105.25" y="39.9902">sesion05</text><line style="stroke:#181818;stroke-width:0.5;" x1="8" x2="211" y1="47.1875" y2="47.1875"/><rect fill="none" height="6" style="stroke:#C82930;stroke-width:1.0;" width="6" x="15" y="58.4922"/><text fill="#000000" font-family="sans-serif" font-size="14" lengthAdjust="spacing" textLength="84" x="27" y="65.7207">marca: String</text><rect fill="none" height="6" style="stroke:#C82930;stroke-width:1.0;" width="6" x="15" y="76.1016"/><text fill="#000000" font-family="sans-serif" font-size="14" lengthAdjust="spacing" textLength="91" x="27" y="83.3301">modelo: String</text><rect fill="none" height="6" style="stroke:#C82930;stroke-width:1.0;" width="6" x="15" y="93.7109"/><text fill="#000000" font-family="sans-serif" font-size="14" lengthAdjust="spacing" textLength="47" x="27" y="100.9395">año: int</text><rect fill="none" height="6" style="stroke:#C82930;stroke-width:1.0;" width="6" x="15" y="111.3203"/><text fill="#000000" font-family="sans-serif" font-size="14" lengthAdjust="spacing" textLength="62" x="27" y="118.5488">precio: int</text><line style="stroke:#181818;stroke-width:0.5;" x1="8" x2="211" y1="125.625" y2="125.625"/><ellipse cx="18" cy="139.9297" fill="#84BE84" rx="3" ry="3" style="stroke:#038048;stroke-width:1.0;"/><text fill="#000000" font-family="sans-serif" font-size="14" lengthAdjust="spacing" textLength="51" x="27" y="144.1582">Coche()</text><ellipse cx="18" cy="157.5391" fill="#84BE84" rx="3" ry="3" style="stroke:#038048;stroke-width:1.0;"/><text fill="#000000" font-family="sans-serif" font-size="14" lengthAdjust="spacing" textLength="179" x="27" y="161.7676">Coche(String, String, int, int)</text><ellipse cx="18" cy="175.1484" fill="#84BE84" rx="3" ry="3" style="stroke:#038048;stroke-width:1.0;"/><text fill="#000000" font-family="sans-serif" font-size="14" lengthAdjust="spacing" textLength="114" x="27" y="179.377">getMarca(): String</text><ellipse cx="18" cy="192.7578" fill="#84BE84" rx="3" ry="3" style="stroke:#038048;stroke-width:1.0;"/><text fill="#000000" font-family="sans-serif" font-size="14" lengthAdjust="spacing" textLength="139" x="27" y="196.9863">setMarca(String): void</text><ellipse cx="18" cy="210.3672" fill="#84BE84" rx="3" ry="3" style="stroke:#038048;stroke-width:1.0;"/><text fill="#000000" font-family="sans-serif" font-size="14" lengthAdjust="spacing" textLength="121" x="27" y="214.5957">getModelo(): String</text><ellipse cx="18" cy="227.9766" fill="#84BE84" rx="3" ry="3" style="stroke:#038048;stroke-width:1.0;"/><text fill="#000000" font-family="sans-serif" font-size="14" lengthAdjust="spacing" textLength="146" x="27" y="232.2051">setModelo(String): void</text><ellipse cx="18" cy="245.5859" fill="#84BE84" rx="3" ry="3" style="stroke:#038048;stroke-width:1.0;"/><text fill="#000000" font-family="sans-serif" font-size="14" lengthAdjust="spacing" textLength="78" x="27" y="249.8145">getAño(): int</text><ellipse cx="18" cy="263.1953" fill="#84BE84" rx="3" ry="3" style="stroke:#038048;stroke-width:1.0;"/><text fill="#000000" font-family="sans-serif" font-size="14" lengthAdjust="spacing" textLength="103" x="27" y="267.4238">setAño(int): void</text><ellipse cx="18" cy="280.8047" fill="#84BE84" rx="3" ry="3" style="stroke:#038048;stroke-width:1.0;"/><text fill="#000000" font-family="sans-serif" font-size="14" lengthAdjust="spacing" textLength="93" x="27" y="285.0332">getPrecio(): int</text><ellipse cx="18" cy="298.4141" fill="#84BE84" rx="3" ry="3" style="stroke:#038048;stroke-width:1.0;"/><text fill="#000000" font-family="sans-serif" font-size="14" lengthAdjust="spacing" textLength="118" x="27" y="302.6426">setPrecio(int): void</text></g></a><text fill="#888888" font-family="sans-serif" font-size="10" lengthAdjust="spacing" textLength="184" x="17" y="327.0996">UMLDoclet 2.1.0, PlantUML 1.2022.14</text><!--SRC=[TPB1QiCm38RlUmfH62Iq2-dOBgKKndPSeL1swdemZjeOR2jOfh2DFTIUOIyssqbOcxO-MFZxzSiIDW00emSh378Z9Awn4KvuSc39uasGeLOL0fh6Vy1EeQvuI0twcW9EN6h13ACvgq-SJHyMpoHhVBVTkLmmiY9RFev0CFI78cN1PfDYKNkZjrluIWNZkZF2IJ63jNVAxeymLQZfd8lVdq2LzV-eSIZL08xJTLa-16sv2VGnUD9sbBX7lumzPVdPxMFkjLO86GTIrQatDNxDt8hNtKzXlEWzcOKx7lkyu5cb-I-vEcNW- -wU4wr71pkY6DwMhoyaTVWmzyMqA2UmqiBwGE7sW2w-PPR_0G00]--></g></svg>