<?xml version="1.0" encoding="UTF-8" standalone="no"?><svg xmlns="http://www.w3.org/2000/svg" xmlns:xlink="http://www.w3.org/1999/xlink" contentStyleType="text/css" height="505px" preserveAspectRatio="none" style="width:463px;height:505px;background:#FFFFFF;" version="1.1" viewBox="0 0 463 505" width="463px" zoomAndPan="magnify"><defs/><g><!--cluster sesion05--><g id="cluster_sesion05"><path d="M8.5,6 L72.5,6 A3.75,3.75 0 0 1 75,8.5 L82,29.6094 L453.5,29.6094 A2.5,2.5 0 0 1 456,32.1094 L456,476.5 A2.5,2.5 0 0 1 453.5,479 L8.5,479 A2.5,2.5 0 0 1 6,476.5 L6,8.5 A2.5,2.5 0 0 1 8.5,6 " fill="none" style="stroke:#000000;stroke-width:1.5;"/><line style="stroke:#000000;stroke-width:1.5;" x1="6" x2="82" y1="29.6094" y2="29.6094"/><text fill="#000000" font-family="sans-serif" font-size="14" font-weight="bold" lengthAdjust="spacing" textLength="63" x="10" y="22.5332">sesion05</text></g><!--class sesion05.Main--><a href="Main.html" target="_top" title="Main.html" xlink:actuate="onRequest" xlink:href="Main.html" xlink:show="new" xlink:title="Main.html" xlink:type="simple"><g id="elem_sesion05.Main"><rect codeLine="3" fill="#F1F1F1" height="65.6094" id="sesion05.Main" rx="2.5" ry="2.5" style="stroke:#181818;stroke-width:0.5;" width="145" x="22.5" y="42"/><ellipse cx="75.75" cy="58" fill="#ADD1B2" rx="11" ry="11" style="stroke:#181818;stroke-width:1.0;"/><path d="M78.5156,53.875 Q78.6719,53.6563 78.8594,53.5469 Q79.0469,53.4375 79.2656,53.4375 Q79.6406,53.4375 79.875,53.7031 Q80.1094,53.9531 80.1094,54.5625 L80.1094,56.0156 Q80.1094,56.625 79.875,56.8906 Q79.6406,57.1563 79.2656,57.1563 Q78.9219,57.1563 78.7188,56.9531 Q78.5156,56.7656 78.4063,56.25 Q78.3594,55.8906 78.1719,55.7031 Q77.8438,55.3281 77.2344,55.1094 Q76.625,54.8906 76,54.8906 Q75.2344,54.8906 74.5938,55.2188 Q73.9688,55.5469 73.4688,56.2969 Q72.9844,57.0469 72.9844,58.0781 L72.9844,59.1719 Q72.9844,60.4063 73.875,61.2344 Q74.7656,62.0469 76.3594,62.0469 Q77.2969,62.0469 77.9531,61.7969 Q78.3438,61.6406 78.7656,61.2031 Q79.0313,60.9375 79.1719,60.8594 Q79.3281,60.7813 79.5313,60.7813 Q79.8594,60.7813 80.1094,61.0469 Q80.375,61.2969 80.375,61.6406 Q80.375,61.9844 80.0313,62.3906 Q79.5313,62.9688 78.7344,63.2969 Q77.6563,63.75 76.3594,63.75 Q74.8438,63.75 73.6406,63.125 Q72.6563,62.625 71.9688,61.5625 Q71.2813,60.4844 71.2813,59.2031 L71.2813,58.0469 Q71.2813,56.7188 71.8906,55.5781 Q72.5156,54.4219 73.6094,53.8125 Q74.7031,53.1875 75.9375,53.1875 Q76.6719,53.1875 77.3125,53.3594 Q77.9688,53.5156 78.5156,53.875 Z " fill="#000000"/><text fill="#000000" font-family="sans-serif" font-size="14" lengthAdjust="spacing" textLength="30" x="96.25" y="63.7285">Main</text><line style="stroke:#181818;stroke-width:0.5;" x1="23.5" x2="166.5" y1="74" y2="74"/><line style="stroke:#181818;stroke-width:0.5;" x1="23.5" x2="166.5" y1="82" y2="82"/><ellipse cx="33.5" cy="96.3047" fill="#84BE84" rx="3" ry="3" style="stroke:#038048;stroke-width:1.0;"/><text fill="#000000" font-family="sans-serif" font-size="14" lengthAdjust="spacing" text-decoration="underline" textLength="119" x="42.5" y="100.5332">main(String[]): void</text></g></a><!--class sesion05.JsonReader--><a href="JsonReader.html" target="_top" title="JsonReader.html" xlink:actuate="onRequest" xlink:href="JsonReader.html" xlink:show="new" xlink:title="JsonReader.html" xlink:type="simple"><g id="elem_sesion05.JsonReader"><rect codeLine="7" fill="#F1F1F1" height="65.6094" id="sesion05.JsonReader" rx="2.5" ry="2.5" style="stroke:#181818;stroke-width:0.5;" width="237" x="202.5" y="42"/><ellipse cx="278.75" cy="58" fill="#ADD1B2" rx="11" ry="11" style="stroke:#181818;stroke-width:1.0;"/><path d="M281.5156,53.875 Q281.6719,53.6563 281.8594,53.5469 Q282.0469,53.4375 282.2656,53.4375 Q282.6406,53.4375 282.875,53.7031 Q283.1094,53.9531 283.1094,54.5625 L283.1094,56.0156 Q283.1094,56.625 282.875,56.8906 Q282.6406,57.1563 282.2656,57.1563 Q281.9219,57.1563 281.7188,56.9531 Q281.5156,56.7656 281.4063,56.25 Q281.3594,55.8906 281.1719,55.7031 Q280.8438,55.3281 280.2344,55.1094 Q279.625,54.8906 279,54.8906 Q278.2344,54.8906 277.5938,55.2188 Q276.9688,55.5469 276.4688,56.2969 Q275.9844,57.0469 275.9844,58.0781 L275.9844,59.1719 Q275.9844,60.4063 276.875,61.2344 Q277.7656,62.0469 279.3594,62.0469 Q280.2969,62.0469 280.9531,61.7969 Q281.3438,61.6406 281.7656,61.2031 Q282.0313,60.9375 282.1719,60.8594 Q282.3281,60.7813 282.5313,60.7813 Q282.8594,60.7813 283.1094,61.0469 Q283.375,61.2969 283.375,61.6406 Q283.375,61.9844 283.0313,62.3906 Q282.5313,62.9688 281.7344,63.2969 Q280.6563,63.75 279.3594,63.75 Q277.8438,63.75 276.6406,63.125 Q275.6563,62.625 274.9688,61.5625 Q274.2813,60.4844 274.2813,59.2031 L274.2813,58.0469 Q274.2813,56.7188 274.8906,55.5781 Q275.5156,54.4219 276.6094,53.8125 Q277.7031,53.1875 278.9375,53.1875 Q279.6719,53.1875 280.3125,53.3594 Q280.9688,53.5156 281.5156,53.875 Z " fill="#000000"/><text fill="#000000" font-family="sans-serif" font-size="14" lengthAdjust="spacing" textLength="76" x="299.25" y="63.7285">JsonReader</text><line style="stroke:#181818;stroke-width:0.5;" x1="203.5" x2="438.5" y1="74" y2="74"/><line style="stroke:#181818;stroke-width:0.5;" x1="203.5" x2="438.5" y1="82" y2="82"/><ellipse cx="213.5" cy="96.3047" fill="#84BE84" rx="3" ry="3" style="stroke:#038048;stroke-width:1.0;"/><text fill="#000000" font-family="sans-serif" font-size="14" lengthAdjust="spacing" text-decoration="underline" textLength="211" x="222.5" y="100.5332">leerCochesJSON(String): Coche[]</text></g></a><!--class sesion05.Coche--><a href="Coche.html" target="_top" title="Coche.html" xlink:actuate="onRequest" xlink:href="Coche.html" xlink:show="new" xlink:title="Coche.html" xlink:type="simple"><g id="elem_sesion05.Coche"><rect codeLine="11" fill="#F1F1F1" height="294.5313" id="sesion05.Coche" rx="2.5" ry="2.5" style="stroke:#181818;stroke-width:0.5;" width="205" x="22.5" y="168"/><ellipse cx="100.25" cy="184" fill="#ADD1B2" rx="11" ry="11" style="stroke:#181818;stroke-width:1.0;"/><path d="M103.0156,179.875 Q103.1719,179.6563 103.3594,179.5469 Q103.5469,179.4375 103.7656,179.4375 Q104.1406,179.4375 104.375,179.7031 Q104.6094,179.9531 104.6094,180.5625 L104.6094,182.0156 Q104.6094,182.625 104.375,182.8906 Q104.1406,183.1563 103.7656,183.1563 Q103.4219,183.1563 103.2188,182.9531 Q103.0156,182.7656 102.9063,182.25 Q102.8594,181.8906 102.6719,181.7031 Q102.3438,181.3281 101.7344,181.1094 Q101.125,180.8906 100.5,180.8906 Q99.7344,180.8906 99.0938,181.2188 Q98.4688,181.5469 97.9688,182.2969 Q97.4844,183.0469 97.4844,184.0781 L97.4844,185.1719 Q97.4844,186.4063 98.375,187.2344 Q99.2656,188.0469 100.8594,188.0469 Q101.7969,188.0469 102.4531,187.7969 Q102.8438,187.6406 103.2656,187.2031 Q103.5313,186.9375 103.6719,186.8594 Q103.8281,186.7813 104.0313,186.7813 Q104.3594,186.7813 104.6094,187.0469 Q104.875,187.2969 104.875,187.6406 Q104.875,187.9844 104.5313,188.3906 Q104.0313,188.9688 103.2344,189.2969 Q102.1563,189.75 100.8594,189.75 Q99.3438,189.75 98.1406,189.125 Q97.1563,188.625 96.4688,187.5625 Q95.7813,186.4844 95.7813,185.2031 L95.7813,184.0469 Q95.7813,182.7188 96.3906,181.5781 Q97.0156,180.4219 98.1094,179.8125 Q99.2031,179.1875 100.4375,179.1875 Q101.1719,179.1875 101.8125,179.3594 Q102.4688,179.5156 103.0156,179.875 Z " fill="#000000"/><text fill="#000000" font-family="sans-serif" font-size="14" lengthAdjust="spacing" textLength="41" x="120.75" y="189.7285">Coche</text><line style="stroke:#181818;stroke-width:0.5;" x1="23.5" x2="226.5" y1="200" y2="200"/><rect fill="none" height="6" style="stroke:#C82930;stroke-width:1.0;" width="6" x="30.5" y="211.3047"/><text fill="#000000" font-family="sans-serif" font-size="14" lengthAdjust="spacing" textLength="84" x="42.5" y="218.5332">marca: String</text><rect fill="none" height="6" style="stroke:#C82930;stroke-width:1.0;" width="6" x="30.5" y="228.9141"/><text fill="#000000" font-family="sans-serif" font-size="14" lengthAdjust="spacing" textLength="91" x="42.5" y="236.1426">modelo: String</text><rect fill="none" height="6" style="stroke:#C82930;stroke-width:1.0;" width="6" x="30.5" y="246.5234"/><text fill="#000000" font-family="sans-serif" font-size="14" lengthAdjust="spacing" textLength="47" x="42.5" y="253.752">año: int</text><rect fill="none" height="6" style="stroke:#C82930;stroke-width:1.0;" width="6" x="30.5" y="264.1328"/><text fill="#000000" font-family="sans-serif" font-size="14" lengthAdjust="spacing" textLength="62" x="42.5" y="271.3613">precio: int</text><line style="stroke:#181818;stroke-width:0.5;" x1="23.5" x2="226.5" y1="278.4375" y2="278.4375"/><ellipse cx="33.5" cy="292.7422" fill="#84BE84" rx="3" ry="3" style="stroke:#038048;stroke-width:1.0;"/><text fill="#000000" font-family="sans-serif" font-size="14" lengthAdjust="spacing" textLength="51" x="42.5" y="296.9707">Coche()</text><ellipse cx="33.5" cy="310.3516" fill="#84BE84" rx="3" ry="3" style="stroke:#038048;stroke-width:1.0;"/><text fill="#000000" font-family="sans-serif" font-size="14" lengthAdjust="spacing" textLength="179" x="42.5" y="314.5801">Coche(String, String, int, int)</text><ellipse cx="33.5" cy="327.9609" fill="#84BE84" rx="3" ry="3" style="stroke:#038048;stroke-width:1.0;"/><text fill="#000000" font-family="sans-serif" font-size="14" lengthAdjust="spacing" textLength="114" x="42.5" y="332.1895">getMarca(): String</text><ellipse cx="33.5" cy="345.5703" fill="#84BE84" rx="3" ry="3" style="stroke:#038048;stroke-width:1.0;"/><text fill="#000000" font-family="sans-serif" font-size="14" lengthAdjust="spacing" textLength="139" x="42.5" y="349.7988">setMarca(String): void</text><ellipse cx="33.5" cy="363.1797" fill="#84BE84" rx="3" ry="3" style="stroke:#038048;stroke-width:1.0;"/><text fill="#000000" font-family="sans-serif" font-size="14" lengthAdjust="spacing" textLength="121" x="42.5" y="367.4082">getModelo(): String</text><ellipse cx="33.5" cy="380.7891" fill="#84BE84" rx="3" ry="3" style="stroke:#038048;stroke-width:1.0;"/><text fill="#000000" font-family="sans-serif" font-size="14" lengthAdjust="spacing" textLength="146" x="42.5" y="385.0176">setModelo(String): void</text><ellipse cx="33.5" cy="398.3984" fill="#84BE84" rx="3" ry="3" style="stroke:#038048;stroke-width:1.0;"/><text fill="#000000" font-family="sans-serif" font-size="14" lengthAdjust="spacing" textLength="78" x="42.5" y="402.627">getAño(): int</text><ellipse cx="33.5" cy="416.0078" fill="#84BE84" rx="3" ry="3" style="stroke:#038048;stroke-width:1.0;"/><text fill="#000000" font-family="sans-serif" font-size="14" lengthAdjust="spacing" textLength="103" x="42.5" y="420.2363">setAño(int): void</text><ellipse cx="33.5" cy="433.6172" fill="#84BE84" rx="3" ry="3" style="stroke:#038048;stroke-width:1.0;"/><text fill="#000000" font-family="sans-serif" font-size="14" lengthAdjust="spacing" textLength="93" x="42.5" y="437.8457">getPrecio(): int</text><ellipse cx="33.5" cy="451.2266" fill="#84BE84" rx="3" ry="3" style="stroke:#038048;stroke-width:1.0;"/><text fill="#000000" font-family="sans-serif" font-size="14" lengthAdjust="spacing" textLength="118" x="42.5" y="455.4551">setPrecio(int): void</text></g></a><text fill="#888888" font-family="sans-serif" font-size="10" lengthAdjust="spacing" textLength="184" x="132.5" y="495.3809">UMLDoclet 2.1.0, PlantUML 1.2022.14</text><!--SRC=[XLAnJiCm4Dtx5RSW9Kg92X9BDmHJHQ2YOeeoMEwrjUJObS_gKlMZ-0P-3Djn0mrEyU2Jxxrxxyus081YBTAUSGH24bhD7k0ucK1SN38Yg9XGKDS-b3lRogPn7FYrZcIP5Vm4HUiusSeQeRPray_XeCMwfvw6mWlIwXtP6esJ_pdyPo8HpPFcEwJ5wkqrsZcpaAkRSRz0S5OXfbrkMsOucqCdEe3q6gLEO-phqo52sSlqtY0N2Q08BMHvAjd9J-4SNMtO1kGjsihtckN9ZWewu_tzN3n6hn66kYRI4QwhFBhnlSQVEIbYll-HscMuex7gY2Rgu_F6m55PzuysMllmKRqyQoxHmdrvLywci9HCMPU5cmCQ_z6p_1i0]--></g></svg>